<svg width="97" height="82" viewBox="0 0 97 82" fill="none" xmlns="http://www.w3.org/2000/svg">
<path fill-rule="evenodd" clip-rule="evenodd" d="M0.322876 41.2C0.322876 40.0799 0.322876 39.5198 0.540863 39.092C0.73261 38.7157 1.03857 38.4097 1.41489 38.218C1.84272 38 2.40277 38 3.52288 38H26.3229V70H0.322876L0.322876 41.2Z" fill="#336DFF"/>
<path fill-rule="evenodd" clip-rule="evenodd" d="M26.3229 21.2C26.3229 20.0799 26.3229 19.5198 26.5409 19.092C26.7326 18.7157 27.0386 18.4097 27.4149 18.218C27.8427 18 28.4028 18 29.5229 18H52.3229V70H26.3229V21.2Z" fill="#0030A6"/>
<path fill-rule="evenodd" clip-rule="evenodd" d="M52.3229 3.2C52.3229 2.07989 52.3229 1.51984 52.5409 1.09202C52.7326 0.715695 53.0386 0.409734 53.4149 0.217987C53.8427 0 54.4028 0 55.5229 0H75.1229C76.243 0 76.803 0 77.2309 0.217987C77.6072 0.409734 77.9131 0.715695 78.1049 1.09202C78.3229 1.51984 78.3229 2.0799 78.3229 3.2V66.8C78.3229 67.9201 78.3229 68.4802 78.1049 68.908C77.9131 69.2843 77.6072 69.5903 77.2309 69.782C76.803 70 76.243 70 75.1229 70H52.3229V3.2Z" fill="#336DFF"/>
<path fill-rule="evenodd" clip-rule="evenodd" d="M77.3229 44C66.8295 44 58.3229 52.5066 58.3229 63C58.3229 73.4934 66.8295 82 77.3229 82C87.8163 82 96.3229 73.4934 96.3229 63C96.3229 52.5066 87.8163 44 77.3229 44Z" fill="#D7DBEC"/>
<mask id="mask0_0_4706" style="mask-type:luminance" maskUnits="userSpaceOnUse" x="58" y="44" width="39" height="38">
<path fill-rule="evenodd" clip-rule="evenodd" d="M77.3229 44C66.8295 44 58.3229 52.5066 58.3229 63C58.3229 73.4934 66.8295 82 77.3229 82C87.8163 82 96.3229 73.4934 96.3229 63C96.3229 52.5066 87.8163 44 77.3229 44Z" fill="white"/>
</mask>
<g mask="url(#mask0_0_4706)">
<path fill-rule="evenodd" clip-rule="evenodd" d="M98.3229 39H77.3229V64.8824L98.3229 79V39Z" fill="#A1A7C4"/>
</g>
</svg>
