<svg width="44" height="38" viewBox="0 0 44 38" fill="none" xmlns="http://www.w3.org/2000/svg">
<path d="M30.3917 18.908C30.3009 18.9779 30.2506 18.994 30.2408 18.9564C29.3565 18.9416 28.4721 18.9342 27.5878 18.9342C26.3416 18.9342 25.4586 18.8959 24.9389 18.8193C22.9173 18.5223 21.1975 17.7166 19.7794 16.4023C16.8721 13.7065 16.001 10.3299 17.1662 6.27273C17.3003 6.0362 17.4302 5.78624 17.556 5.52284C18.9286 2.67849 21.4455 0.821902 24.6371 0.140549C25.0213 0.0585716 25.6849 0.0162388 26.628 0.013551C31.1126 -0.00123178 35.5497 -0.00391975 39.9394 0.0054875C40.1098 0.0054875 40.1566 0.0787296 40.0798 0.225214L30.3917 18.908Z" fill="#F500F5"/>
<path d="M17.1662 6.27246C16.001 10.3297 16.8721 13.7062 19.7794 16.402C21.1975 17.7164 22.9173 18.522 24.9389 18.819C25.4586 18.8956 26.3415 18.9339 27.5877 18.9339C28.4721 18.9339 29.3565 18.9413 30.2408 18.9561L20.4312 37.9997L0.90407 37.9937C0.884877 37.9936 0.866033 37.9887 0.84931 37.9797C0.832587 37.9706 0.818533 37.9576 0.808474 37.9419C0.798414 37.9262 0.792678 37.9082 0.791804 37.8898C0.790931 37.8713 0.794948 37.853 0.803479 37.8364L17.1662 6.27246Z" fill="#4141F9"/>
<path d="M20.4311 37.9997L30.2407 18.956C30.2505 18.9937 30.3008 18.9775 30.3916 18.9077C31.6308 18.8983 32.8568 18.8936 34.0695 18.8936C35.331 18.8949 36.6492 19.1993 38.0239 19.8067C42.5274 21.7984 44.7236 26.7392 43.2672 31.291C42.2382 34.5022 39.4322 37.0502 35.9555 37.782C35.2654 37.9271 34.2099 37.9997 32.789 37.9997C28.7095 37.9983 24.5902 37.9983 20.4311 37.9997Z" fill="#01F5F5"/>
</svg>
